<mxfile host="Electron" modified="2023-11-17T00:28:59.442Z" agent="Mozilla/5.0 (Windows NT 10.0; Win64; x64) AppleWebKit/537.36 (KHTML, like Gecko) draw.io/22.1.2 Chrome/114.0.5735.289 Electron/25.9.4 Safari/537.36" etag="QNF-3SVNG9Z--uepjfBN" version="22.1.2" type="device">
  <diagram name="PÃ¡gina-1" id="RE8rUj6tG1aRCzW414ZQ">
    <mxGraphModel dx="880" dy="524" grid="1" gridSize="10" guides="1" tooltips="1" connect="1" arrows="1" fold="1" page="1" pageScale="1" pageWidth="827" pageHeight="1169" math="1" shadow="0">
      <root>
        <mxCell id="0" />
        <mxCell id="1" parent="0" />
        <mxCell id="AMgx_i2CWmip0ukCpxhf-3" style="edgeStyle=orthogonalEdgeStyle;rounded=0;orthogonalLoop=1;jettySize=auto;html=1;exitX=0.5;exitY=1;exitDx=0;exitDy=0;exitPerimeter=0;entryX=0.5;entryY=0;entryDx=0;entryDy=0;" edge="1" parent="1" source="AMgx_i2CWmip0ukCpxhf-1" target="AMgx_i2CWmip0ukCpxhf-2">
          <mxGeometry relative="1" as="geometry" />
        </mxCell>
        <mxCell id="AMgx_i2CWmip0ukCpxhf-1" value="TCM_Est1" style="strokeWidth=2;html=1;shape=mxgraph.flowchart.terminator;whiteSpace=wrap;" vertex="1" parent="1">
          <mxGeometry x="364" y="20" width="100" height="60" as="geometry" />
        </mxCell>
        <mxCell id="AMgx_i2CWmip0ukCpxhf-7" value="" style="edgeStyle=orthogonalEdgeStyle;rounded=0;orthogonalLoop=1;jettySize=auto;html=1;" edge="1" parent="1" source="AMgx_i2CWmip0ukCpxhf-2" target="AMgx_i2CWmip0ukCpxhf-4">
          <mxGeometry relative="1" as="geometry" />
        </mxCell>
        <mxCell id="AMgx_i2CWmip0ukCpxhf-2" value="MinutosTCM \(\leftarrow\) tMinutosTCM&lt;br&gt;SegundosTCM \(\leftarrow\) tSegundosTCM&lt;br&gt;BIN2 \(\leftarrow\) tMinutosTCM&lt;br&gt;BIN1 \(\leftarrow\) tSegundosTCM" style="rounded=0;whiteSpace=wrap;html=1;" vertex="1" parent="1">
          <mxGeometry x="311" y="110" width="206" height="80" as="geometry" />
        </mxCell>
        <mxCell id="AMgx_i2CWmip0ukCpxhf-6" value="" style="edgeStyle=orthogonalEdgeStyle;rounded=0;orthogonalLoop=1;jettySize=auto;html=1;" edge="1" parent="1" source="AMgx_i2CWmip0ukCpxhf-4" target="AMgx_i2CWmip0ukCpxhf-5">
          <mxGeometry relative="1" as="geometry" />
        </mxCell>
        <mxCell id="AMgx_i2CWmip0ukCpxhf-10" style="edgeStyle=orthogonalEdgeStyle;rounded=0;orthogonalLoop=1;jettySize=auto;html=1;exitX=0.5;exitY=1;exitDx=0;exitDy=0;entryX=0.5;entryY=0;entryDx=0;entryDy=0;" edge="1" parent="1" source="AMgx_i2CWmip0ukCpxhf-4" target="AMgx_i2CWmip0ukCpxhf-8">
          <mxGeometry relative="1" as="geometry" />
        </mxCell>
        <mxCell id="AMgx_i2CWmip0ukCpxhf-4" value="ShortP = 0" style="shape=hexagon;perimeter=hexagonPerimeter2;whiteSpace=wrap;html=1;fixedSize=1;" vertex="1" parent="1">
          <mxGeometry x="354" y="230" width="120" height="50" as="geometry" />
        </mxCell>
        <mxCell id="AMgx_i2CWmip0ukCpxhf-5" value="Return" style="strokeWidth=2;html=1;shape=mxgraph.flowchart.terminator;whiteSpace=wrap;" vertex="1" parent="1">
          <mxGeometry x="150" y="225" width="100" height="60" as="geometry" />
        </mxCell>
        <mxCell id="AMgx_i2CWmip0ukCpxhf-11" style="edgeStyle=orthogonalEdgeStyle;rounded=0;orthogonalLoop=1;jettySize=auto;html=1;exitX=0.5;exitY=1;exitDx=0;exitDy=0;entryX=0.5;entryY=0;entryDx=0;entryDy=0;" edge="1" parent="1" source="AMgx_i2CWmip0ukCpxhf-8" target="AMgx_i2CWmip0ukCpxhf-9">
          <mxGeometry relative="1" as="geometry" />
        </mxCell>
        <mxCell id="AMgx_i2CWmip0ukCpxhf-8" value="LEDS \(\leftarrow\) TransitorioLD&lt;br&gt;Msg_L1 \(\leftarrow\) Mensaje_TransitorioL1&lt;br&gt;Msg_L2 \(\leftarrow\) Mensaje_TransitorioL2&lt;br&gt;LCD_OK \(\leftarrow\) 0" style="rounded=0;whiteSpace=wrap;html=1;" vertex="1" parent="1">
          <mxGeometry x="304" y="310" width="220" height="70" as="geometry" />
        </mxCell>
        <mxCell id="AMgx_i2CWmip0ukCpxhf-9" value="Est_Pres_TCM \(\leftarrow\) TCM_Est2" style="rounded=0;whiteSpace=wrap;html=1;" vertex="1" parent="1">
          <mxGeometry x="321" y="410" width="186" height="40" as="geometry" />
        </mxCell>
        <mxCell id="AMgx_i2CWmip0ukCpxhf-12" style="edgeStyle=orthogonalEdgeStyle;rounded=0;orthogonalLoop=1;jettySize=auto;html=1;exitX=0;exitY=0.5;exitDx=0;exitDy=0;entryX=0.5;entryY=1;entryDx=0;entryDy=0;entryPerimeter=0;" edge="1" parent="1" source="AMgx_i2CWmip0ukCpxhf-9" target="AMgx_i2CWmip0ukCpxhf-5">
          <mxGeometry relative="1" as="geometry" />
        </mxCell>
        <mxCell id="AMgx_i2CWmip0ukCpxhf-37" value="" style="edgeStyle=orthogonalEdgeStyle;rounded=0;orthogonalLoop=1;jettySize=auto;html=1;" edge="1" parent="1" source="AMgx_i2CWmip0ukCpxhf-13" target="AMgx_i2CWmip0ukCpxhf-14">
          <mxGeometry relative="1" as="geometry" />
        </mxCell>
        <mxCell id="AMgx_i2CWmip0ukCpxhf-13" value="TCM_Est2" style="strokeWidth=2;html=1;shape=mxgraph.flowchart.terminator;whiteSpace=wrap;" vertex="1" parent="1">
          <mxGeometry x="364" y="490" width="100" height="60" as="geometry" />
        </mxCell>
        <mxCell id="AMgx_i2CWmip0ukCpxhf-17" style="edgeStyle=orthogonalEdgeStyle;rounded=0;orthogonalLoop=1;jettySize=auto;html=1;exitX=0;exitY=0.5;exitDx=0;exitDy=0;" edge="1" parent="1" source="AMgx_i2CWmip0ukCpxhf-14" target="AMgx_i2CWmip0ukCpxhf-15">
          <mxGeometry relative="1" as="geometry" />
        </mxCell>
        <mxCell id="AMgx_i2CWmip0ukCpxhf-38" value="" style="edgeStyle=orthogonalEdgeStyle;rounded=0;orthogonalLoop=1;jettySize=auto;html=1;" edge="1" parent="1" source="AMgx_i2CWmip0ukCpxhf-14" target="AMgx_i2CWmip0ukCpxhf-26">
          <mxGeometry relative="1" as="geometry" />
        </mxCell>
        <mxCell id="AMgx_i2CWmip0ukCpxhf-14" value="BIN2 \(\leftarrow\) (MinutosTCM)&lt;br&gt;R1 \(\leftarrow\) (SegundosTCM)&lt;br&gt;R1 \(\leftarrow\) (R1) -1&lt;br&gt;BIN1 \(\leftarrow\) (R1)" style="rounded=0;whiteSpace=wrap;html=1;" vertex="1" parent="1">
          <mxGeometry x="326" y="585" width="176" height="75" as="geometry" />
        </mxCell>
        <mxCell id="AMgx_i2CWmip0ukCpxhf-18" style="edgeStyle=orthogonalEdgeStyle;rounded=0;orthogonalLoop=1;jettySize=auto;html=1;exitX=0.5;exitY=1;exitDx=0;exitDy=0;entryX=0.5;entryY=0;entryDx=0;entryDy=0;" edge="1" parent="1" source="AMgx_i2CWmip0ukCpxhf-15" target="AMgx_i2CWmip0ukCpxhf-16">
          <mxGeometry relative="1" as="geometry" />
        </mxCell>
        <mxCell id="AMgx_i2CWmip0ukCpxhf-15" value="SegundosTCM = 0" style="shape=hexagon;perimeter=hexagonPerimeter2;whiteSpace=wrap;html=1;fixedSize=1;" vertex="1" parent="1">
          <mxGeometry x="90" y="670" width="120" height="50" as="geometry" />
        </mxCell>
        <mxCell id="AMgx_i2CWmip0ukCpxhf-23" style="edgeStyle=orthogonalEdgeStyle;rounded=0;orthogonalLoop=1;jettySize=auto;html=1;exitX=0.5;exitY=1;exitDx=0;exitDy=0;" edge="1" parent="1" source="AMgx_i2CWmip0ukCpxhf-16" target="AMgx_i2CWmip0ukCpxhf-22">
          <mxGeometry relative="1" as="geometry" />
        </mxCell>
        <mxCell id="AMgx_i2CWmip0ukCpxhf-24" value="NO" style="edgeLabel;html=1;align=center;verticalAlign=middle;resizable=0;points=[];" vertex="1" connectable="0" parent="AMgx_i2CWmip0ukCpxhf-23">
          <mxGeometry x="-0.24" y="1" relative="1" as="geometry">
            <mxPoint as="offset" />
          </mxGeometry>
        </mxCell>
        <mxCell id="AMgx_i2CWmip0ukCpxhf-29" style="edgeStyle=orthogonalEdgeStyle;rounded=0;orthogonalLoop=1;jettySize=auto;html=1;exitX=1;exitY=0.5;exitDx=0;exitDy=0;entryX=0;entryY=0.5;entryDx=0;entryDy=0;" edge="1" parent="1" source="AMgx_i2CWmip0ukCpxhf-16" target="AMgx_i2CWmip0ukCpxhf-26">
          <mxGeometry relative="1" as="geometry" />
        </mxCell>
        <mxCell id="AMgx_i2CWmip0ukCpxhf-16" value="MinutosTCM = 0" style="shape=hexagon;perimeter=hexagonPerimeter2;whiteSpace=wrap;html=1;fixedSize=1;" vertex="1" parent="1">
          <mxGeometry x="90" y="760" width="120" height="50" as="geometry" />
        </mxCell>
        <mxCell id="AMgx_i2CWmip0ukCpxhf-19" value="Return" style="strokeWidth=2;html=1;shape=mxgraph.flowchart.terminator;whiteSpace=wrap;" vertex="1" parent="1">
          <mxGeometry x="20" y="520" width="100" height="60" as="geometry" />
        </mxCell>
        <mxCell id="AMgx_i2CWmip0ukCpxhf-20" style="edgeStyle=orthogonalEdgeStyle;rounded=0;orthogonalLoop=1;jettySize=auto;html=1;exitX=0;exitY=0.5;exitDx=0;exitDy=0;entryX=0.5;entryY=1;entryDx=0;entryDy=0;entryPerimeter=0;" edge="1" parent="1" source="AMgx_i2CWmip0ukCpxhf-15" target="AMgx_i2CWmip0ukCpxhf-19">
          <mxGeometry relative="1" as="geometry" />
        </mxCell>
        <mxCell id="AMgx_i2CWmip0ukCpxhf-21" value="NO" style="edgeLabel;html=1;align=center;verticalAlign=middle;resizable=0;points=[];" vertex="1" connectable="0" parent="AMgx_i2CWmip0ukCpxhf-20">
          <mxGeometry x="0.0667" relative="1" as="geometry">
            <mxPoint as="offset" />
          </mxGeometry>
        </mxCell>
        <mxCell id="AMgx_i2CWmip0ukCpxhf-22" value="MinutosTCM \(\leftarrow\) (MinutosTCM) -1&lt;br&gt;SegundosTCM \(\leftarrow\) 60" style="rounded=0;whiteSpace=wrap;html=1;" vertex="1" parent="1">
          <mxGeometry x="50" y="860" width="200" height="60" as="geometry" />
        </mxCell>
        <mxCell id="AMgx_i2CWmip0ukCpxhf-30" value="" style="edgeStyle=orthogonalEdgeStyle;rounded=0;orthogonalLoop=1;jettySize=auto;html=1;" edge="1" parent="1" source="AMgx_i2CWmip0ukCpxhf-26" target="AMgx_i2CWmip0ukCpxhf-27">
          <mxGeometry relative="1" as="geometry" />
        </mxCell>
        <mxCell id="AMgx_i2CWmip0ukCpxhf-26" value="MinutosTCM \(\leftarrow\) tMinutosTCM&lt;br&gt;SegundosTCM \(\leftarrow\) tSegundosTCM&lt;br&gt;BIN2 \(\leftarrow\) tMinutosTCM&lt;br&gt;BIN1 \(\leftarrow\) tSegundosTCM" style="rounded=0;whiteSpace=wrap;html=1;" vertex="1" parent="1">
          <mxGeometry x="311" y="745" width="206" height="80" as="geometry" />
        </mxCell>
        <mxCell id="AMgx_i2CWmip0ukCpxhf-32" value="" style="edgeStyle=orthogonalEdgeStyle;rounded=0;orthogonalLoop=1;jettySize=auto;html=1;" edge="1" parent="1" source="AMgx_i2CWmip0ukCpxhf-27" target="AMgx_i2CWmip0ukCpxhf-31">
          <mxGeometry relative="1" as="geometry" />
        </mxCell>
        <mxCell id="AMgx_i2CWmip0ukCpxhf-27" value="LEDS \(\leftarrow\) BienvenidaLD&lt;br&gt;Msg_L1 \(\leftarrow\) Mensaje_BienvenidaL1&lt;br&gt;Msg_L2 \(\leftarrow\) Mensaje_BienvenidaL2&lt;br&gt;LCD_OK \(\leftarrow\) 0" style="rounded=0;whiteSpace=wrap;html=1;" vertex="1" parent="1">
          <mxGeometry x="304" y="855" width="220" height="70" as="geometry" />
        </mxCell>
        <mxCell id="AMgx_i2CWmip0ukCpxhf-34" value="" style="edgeStyle=orthogonalEdgeStyle;rounded=0;orthogonalLoop=1;jettySize=auto;html=1;" edge="1" parent="1" source="AMgx_i2CWmip0ukCpxhf-31" target="AMgx_i2CWmip0ukCpxhf-33">
          <mxGeometry relative="1" as="geometry" />
        </mxCell>
        <mxCell id="AMgx_i2CWmip0ukCpxhf-31" value="Est_Pres_TCM \(\leftarrow\) TCM_Est1" style="rounded=0;whiteSpace=wrap;html=1;" vertex="1" parent="1">
          <mxGeometry x="321" y="960" width="186" height="40" as="geometry" />
        </mxCell>
        <mxCell id="AMgx_i2CWmip0ukCpxhf-33" value="Return" style="strokeWidth=2;html=1;shape=mxgraph.flowchart.terminator;whiteSpace=wrap;" vertex="1" parent="1">
          <mxGeometry x="620" y="950" width="100" height="60" as="geometry" />
        </mxCell>
        <mxCell id="AMgx_i2CWmip0ukCpxhf-36" style="edgeStyle=orthogonalEdgeStyle;rounded=0;orthogonalLoop=1;jettySize=auto;html=1;exitX=0.5;exitY=1;exitDx=0;exitDy=0;entryX=0.5;entryY=1;entryDx=0;entryDy=0;entryPerimeter=0;" edge="1" parent="1" source="AMgx_i2CWmip0ukCpxhf-22" target="AMgx_i2CWmip0ukCpxhf-33">
          <mxGeometry relative="1" as="geometry">
            <Array as="points">
              <mxPoint x="150" y="1050" />
              <mxPoint x="670" y="1050" />
            </Array>
          </mxGeometry>
        </mxCell>
      </root>
    </mxGraphModel>
  </diagram>
</mxfile>
